# xmcd CD database file
#
# Track frame offsets:
#	150
#	17293
#	31168
#	49570
#	64899
#	80345
#	94541
#	107909
#	126382
#	144068
#	160777
#	174887
#	189202
#	204233
#	221444
#
# Disc length: 2985 seconds
#
# Revision: 0
# Processed by: cddbd v1.5.1PL0 Copyright (c) Steve Scherf et al.
# Submitted via: CDex 1.51
#
DISCID=b00ba70f
DTITLE=Jean-Francois Maljean - Pour Elle
DYEAR=2000
DGENRE=New Age
TTITLE0=Pour Elle
TTITLE1=Voyages
TTITLE2=Louise
TTITLE3=Gargnano
TTITLE4=Ballade Irlandaise
TTITLE5=Km 53
TTITLE6=Apres La Pluie
TTITLE7=Les Lssambres
TTITLE8=La Piscine Verte
TTITLE9=Le Bout Du Monde
TTITLE10=Train De Nuit
TTITLE11=Histoire Simple
TTITLE12=Salamandre
TTITLE13=Voie 12
TTITLE14=Funny Face
EXTD=YEAR: 2000
EXTT0=
EXTT1=
EXTT2=
EXTT3=
EXTT4=
EXTT5=
EXTT6=
EXTT7=
EXTT8=
EXTT9=
EXTT10=
EXTT11=
EXTT12=
EXTT13=
EXTT14=
PLAYORDER=
